Coordinates
version=1
nRows=19
nColumns=24
inDegrees=yes

Units are S.I. units (second, meters, Newtons, ...)
Angles are in degrees.

endheader
time	pelvis_tilt	pelvis_list	pelvis_rotation	pelvis_tx	pelvis_ty	pelvis_tz	hip_flexion_r	hip_adduction_r	hip_rotation_r	knee_angle_r	ankle_angle_r	subtalar_angle_r	mtp_angle_r	hip_flexion_l	hip_adduction_l	hip_rotation_l	knee_angle_l	ankle_angle_l	subtalar_angle_l	mtp_angle_l	lumbar_extension	lumbar_bending	lumbar_rotation
      0.75000000	     -0.27610554	      6.24028392	      7.43378949	      1.27714201	      1.11029259	     -0.02450712	     23.19410198	     -5.97784558	    -15.58216025	    -22.65943516	    -14.44096982	      0.48487472	      0.00000000	     40.92409446	      0.95188590	     -4.46898151	   -121.23591424	      7.18532262	    -10.84256942	      0.00000000	    -12.01313842	      0.39287241	     -0.04755668
      0.75833333	     -0.41363739	      6.28695989	      7.16359554	      1.28978657	      1.10769229	     -0.02501252	     23.94444602	     -6.05939357	    -15.95512770	    -20.84248614	    -14.12604780	      1.20947477	      0.00000000	     39.59959338	      1.12299399	     -4.13787776	   -120.94638308	      6.92175859	    -11.48507630	      0.00000000	    -11.83532102	      0.50827659	     -0.06590886
      0.76666667	     -0.52872554	      6.33697349	      6.90313284	      1.30251558	      1.10446061	     -0.02552329	     24.65587400	     -6.16523255	    -16.65463252	    -19.00293702	    -14.54726316	      1.45174996	      0.00000000	     38.23172053	      1.26587620	     -3.82049744	   -120.56746879	      6.85145619	    -12.00964573	      0.00000000	    -11.65174032	      0.68720498	     -0.09425054
      0.77500000	     -0.64598166	      6.46713398	      6.62152329	      1.31532602	      1.10057837	     -0.02605884	     25.37838769	     -6.36156351	    -17.60083043	    -17.22579197	    -15.47969409	      1.42323652	      0.00000000	     36.83871200	      1.46313900	     -3.63292408	   -120.04800534	      6.50384410	    -13.32781575	      0.00000000	    -11.48026011	      0.66687023	     -0.09131267
      0.78333333	     -0.67753571	      6.58580114	      6.37925700	      1.32829689	      1.09609295	     -0.02657734	     25.98346031	     -6.54908202	    -18.81413731	    -15.51193046	    -16.67539517	      1.27395247	      0.00000000	     35.37070759	      1.64876063	     -3.41395497	   -119.45374890	      6.34658355	    -14.46834759	      0.00000000	    -11.35798609	      0.70111813	     -0.09688203
      0.79166667	     -0.64360508	      6.72023507	      6.17078330	      1.34140803	      1.09098645	     -0.02706726	     26.48784311	     -6.73080841	    -20.03986455	    -13.89198187	    -17.94530315	      1.13336106	      0.00000000	     33.86853481	      1.86312281	     -3.19990778	   -118.76852061	      6.19616246	    -15.77502414	      0.00000000	    -11.28863106	      0.72240371	     -0.10034495
      0.80000000	     -0.55876076	      6.86163138	      6.01350052	      1.35464548	      1.08523697	     -0.02749812	     26.88880935	     -6.88479745	    -21.03224564	    -12.38255401	    -19.10056574	      1.10137746	      0.00000000	     32.38314107	      2.11018292	     -2.96601463	   -118.00206926	      6.03962141	    -17.20787098	      0.00000000	    -11.23508263	      0.71399631	     -0.09912036
      0.80833333	     -0.42986267	      7.01021278	      5.91111446	      1.36795812	      1.07883422	     -0.02785459	     27.18330856	     -7.00413972	    -21.54977595	    -11.00929301	    -20.08186969	      1.16023678	      0.00000000	     30.95835992	      2.39384001	     -2.69927847	   -117.16923774	      5.93455427	    -18.63898035	      0.00000000	    -11.21578442	      0.70031214	     -0.09701711
      0.81666667	     -0.28067347	      7.16421536	      5.87603430	      1.38129909	      1.07174881	     -0.02815557	     27.40811929	     -7.11134102	    -21.53120139	     -9.84881621	    -20.92305575	      1.18627301	      0.00000000	     29.65276209	      2.71265125	     -2.38896813	   -116.28227913	      5.88223216	    -20.01137451	      0.00000000	    -11.19778093	      0.66136866	     -0.09093007
      0.82500000	     -0.12238332	      7.33431231	      5.90261089	      1.39460595	      1.06397347	     -0.02843070	     27.61170775	     -7.24849176	    -21.05314768	     -9.01114989	    -21.77823783	      1.04246387	      0.00000000	     28.50420439	      3.06587161	     -2.04684288	   -115.35091451	      5.92259888	    -21.23819298	      0.00000000	    -11.19197949	      0.59483807	     -0.08048000
      0.83333333	      0.03445060	      7.51280950	      5.99799374	      1.40784284	      1.05548886	     -0.02871177	     27.85168524	     -7.44634676	    -20.33870037	     -8.61627901	    -22.81956975	      0.61278576	      0.00000000	     27.54205168	      3.42988753	     -1.66985979	   -114.38645852	      6.09221170	    -22.30746016	      0.00000000	    -11.17875400	      0.51305164	     -0.06763956
      0.84166667	      0.17321019	      7.69231297	      6.16027749	      1.42098448	      1.04627764	     -0.02903865	     28.18546207	     -7.72727195	    -19.63128795	     -8.74649846	    -24.28476804	     -0.09453050	      0.00000000	     26.79923193	      3.77936504	     -1.27057785	   -113.39988899	      6.30476446	    -23.26221878	      0.00000000	    -11.14279448	      0.43133270	     -0.05483807
      0.85000000	      0.34456850	      7.88248233	      6.41557645	      1.43405466	      1.03639418	     -0.02944041	     28.55607489	     -8.12333858	    -19.07767923	     -9.42666100	    -26.11070431	     -0.92125881	      0.00000000	     26.21937701	      4.10184118	     -0.83781314	   -112.39680791	      6.63762173	    -24.07188711	      0.00000000	    -11.16760416	      0.33130941	     -0.03908651
      0.85833333	      0.57527695	      8.00617209	      6.77718051	      1.44712337	      1.02583031	     -0.02989834	     28.89298028	     -8.55641656	    -18.70111605	    -10.60630831	    -28.11869208	     -1.74522089	      0.00000000	     25.77918264	      4.28070401	     -0.34802097	   -111.40004267	      6.99485504	    -24.91793590	      0.00000000	    -11.20172288	      0.34732836	     -0.04155101
      0.86666667	      0.88627182	      8.09432972	      7.25805613	      1.46018604	      1.01463792	     -0.03041043	     29.10944201	     -9.02810900	    -18.21351960	    -12.22210310	    -29.54437160	     -2.12515231	      0.00000000	     25.45511719	      4.33921348	      0.18532941	   -110.41675958	      7.39541993	    -25.83843161	      0.00000000	    -11.33990314	      0.41294188	     -0.05167375
      0.87500000	      1.25214330	      8.10176520	      7.87090714	      1.47319478	      1.00282536	     -0.03094689	     29.19344080	     -9.45372317	    -17.45280299	    -14.24412480	    -29.52728388	     -1.71159278	      0.00000000	     25.29495028	      4.22294168	      0.76622213	   -109.47552974	      7.76097447	    -26.97687880	      0.00000000	    -11.53066202	      0.55442003	     -0.07364001
      0.88333333	      1.61519646	      7.95958958	      8.57038239	      1.48602493	      0.99033846	     -0.03136000	     29.23187589	     -9.66299642	    -16.20204300	    -16.67901018	    -27.40584272	     -0.65134896	      0.00000000	     25.39568837	      3.84078960	      1.36750582	   -108.62407036	      8.21161527	    -28.17875199	      0.00000000	    -11.69663911	      0.86303941	     -0.12188819
      0.89166667	      1.88804044	      7.69103407	      9.31713933	      1.49847592	      0.97722083	     -0.03168342	     29.40491747	     -9.64940712	    -14.61438124	    -19.58962034	    -22.90574170	      1.12930955	      0.00000000	     25.86829217	      3.26463285	      1.92882836	   -107.86388980	      8.68359632	    -29.60026511	      0.00000000	    -11.77917372	      1.27559777	     -0.18655332
      0.90000000	      2.01079835	      7.23423704	     10.05299255	      1.51033163	      0.96352323	     -0.03187640	     29.89763343	     -9.35272538	    -13.03639752	    -22.98809217	    -16.39847232	      3.43177144	      0.00000000	     26.80823191	      2.46340714	      2.43261127	   -107.21439656	      9.08931058	    -31.25950175	      0.00000000	    -11.70076030	      1.86058235	     -0.27854153
